<svg width="24" height="22" viewBox="0 0 24 22" fill="none" xmlns="http://www.w3.org/2000/svg">
<path d="M1.62479 1L22.3747 21M9.51471 8.68182C8.91223 9.28178 8.54145 10.0991 8.54145 11C8.54145 12.841 10.0898 14.3333 11.9998 14.3333C12.9479 14.3333 13.807 13.9656 14.4316 13.37M5.65951 5.05239C3.47004 6.44482 1.80235 8.53771 1 11C2.46892 15.5079 6.8383 18.7778 12 18.7778C14.2927 18.7778 16.4292 18.1327 18.2245 17.0204M10.847 3.2771C11.2262 3.24081 11.6109 3.22222 12 3.22222C17.1618 3.22222 21.5311 6.49212 23 11C22.6764 11.9933 22.2118 12.9264 21.6291 13.7778" stroke="#717171" stroke-width="2" stroke-linecap="round" stroke-linejoin="round"/>
</svg>
